<svg height="512pt" viewBox="-121 0 512 512" width="512pt" xmlns="http://www.w3.org/2000/svg"><path d="m.769531 492.257812c-1.523437 4.570313-.7578122 9.601563 2.0625 13.511719 2.820313 3.910157 7.347657 6.230469 12.167969 6.230469h240c4.820312 0 9.347656-2.316406 12.167969-6.230469 2.820312-3.910156 3.585937-8.9375 2.0625-13.511719l-16.285157-48.851562c-6.554687-19.664062-13.304687-55.5-12.902343-77.5.28125-15.519531 2.085937-30.5625 5.367187-44.710938 7.609375-32.792968 13.273438-59.578124 17.324219-81.886718 10.507813-57.902344 1.871094-118.632813-24.316406-171.015625-2.542969-5.082031-7.738281-8.292969-13.417969-8.292969h-23.59375l5.921875-30h47.671875c8.285156 0 15-6.714844 15-15s-6.714844-15-15-15h-60c-7.164062 0-13.328125 5.066406-14.714844 12.097656l-9.457031 47.902344h-125.828125c-5.683594 0-10.875 3.210938-13.417969 8.292969-26.1875 52.382812-34.824219 113.113281-24.316406 171.015625 4.050781 22.308594 9.71875 49.09375 17.324219 81.882812 3.28125 14.15625 5.085937 29.199219 5.367187 44.714844.402344 22-6.347656 57.835938-12.902343 77.5zm32.292969-310.257812h35.722656l-16.820312 16.820312c-2.8125 2.8125-4.390625 6.628907-4.390625 10.605469 0 3.976563 1.578125 7.792969 4.390625 10.605469l42.429687 42.429688c2.929688 2.925781 6.765625 4.390624 10.605469 4.390624 3.835938 0 7.675781-1.460937 10.605469-4.390624l42.425781-42.429688c2.8125-2.8125 4.394531-6.628906 4.394531-10.605469 0-3.980469-1.578125-7.792969-4.394531-10.605469l-16.820312-16.820312h95.726562c.609375 17.351562-.609375 34.789062-3.722656 51.949219-3.960938 21.828125-9.53125 48.148437-17.027344 80.464843-3.753906 16.191407-5.820312 33.332032-6.140625 50.945313-.296875 16.328125 2.472656 37.539063 6.40625 56.640625h-162.90625c3.933594-19.101562 6.703125-40.3125 6.40625-56.640625-.320313-17.609375-2.386719-34.75-6.140625-50.945313-7.496094-32.316406-13.066406-58.636718-17.027344-80.464843-3.117187-17.160157-4.332031-34.597657-3.722656-51.949219zm93.152344 27.425781-21.214844 21.214844-21.214844-21.214844 21.214844-21.210937zm-90.402344 272.574219c5.28125-15.855469 9.371094-28.097656 9.992188-30h178.390624c.695313 2.128906-1.179687-3.535156 9.992188 30zm179.714844-392c8.921875 19.71875 15.125 40.625 18.515625 62h-50.792969l12.238281-62zm-161.058594 0h110.441406l-12.238281 62c-4.941406 0-116.171875 0-116.71875 0 3.394531-21.375 9.597656-42.28125 18.515625-62zm0 0"/><path d="m105 392h60c8.285156 0 15-6.714844 15-15v-60c0-8.285156-6.714844-15-15-15h-60c-8.285156 0-15 6.714844-15 15v60c0 8.285156 6.714844 15 15 15zm15-60h30v30h-30zm0 0"/></svg>