<svg xmlns="http://www.w3.org/2000/svg" width="30.733" height="30.542" viewBox="0 0 30.733 30.542">
  <defs>
    <style>
      .cls-1 {
        fill: none;
      }

      .cls-2 {
        fill: #f36e21;
      }
    </style>
  </defs>
  <g id="Sale_icon" data-name="Sale icon" transform="translate(0.366 0.271)">
    <rect id="Rectangle_65" data-name="Rectangle 65" class="cls-1" width="30" height="30"/>
    <path id="Path_40" data-name="Path 40" class="cls-2" d="M15.4,30.736a1.883,1.883,0,0,1-1.188-.424l-2.1-1.716-2.652.543a1.855,1.855,0,0,1-.386.041,1.875,1.875,0,0,1-1.722-1.142L6.3,25.542l-2.6-.75a1.886,1.886,0,0,1-1.35-1.955l.221-2.7L.612,18.26A1.88,1.88,0,0,1,.325,15.9l1.45-2.288L.914,11.045a1.883,1.883,0,0,1,.843-2.222L4.105,7.469,4.537,4.8A1.883,1.883,0,0,1,6.314,3.219l2.708-.107L10.646.945a1.892,1.892,0,0,1,1.5-.751,1.857,1.857,0,0,1,.807.183L15.4,1.54,17.847.376a1.875,1.875,0,0,1,2.308.568L21.78,3.112l2.707.107a1.888,1.888,0,0,1,1.779,1.572L26.7,7.469l2.348,1.354a1.885,1.885,0,0,1,.844,2.218l-.862,2.573,1.45,2.288a1.883,1.883,0,0,1-.289,2.36l-1.954,1.874.221,2.7a1.883,1.883,0,0,1-1.348,1.956l-2.6.751-1.058,2.493a1.869,1.869,0,0,1-2.108,1.1L18.686,28.6l-2.1,1.715A1.883,1.883,0,0,1,15.4,30.736Zm-2.77-4.222,2.77,2.268,2.771-2.268,3.51.719,1.4-3.3,3.44-.992-.292-3.57L28.816,16.9,26.9,13.872l1.138-3.4-3.1-1.79-.571-3.534-3.579-.141L18.635,2.147,15.4,3.685,12.166,2.146,10.019,5.012l-3.577.141L5.871,8.687l-3.1,1.79,1.138,3.4L1.988,16.9l2.585,2.478-.292,3.57,3.44.992,1.4,3.3Z" transform="translate(-0.401 -0.465)"/>
    <g id="Group_1" data-name="Group 1" transform="translate(9.286 8.443)">
      <path id="Path_41" data-name="Path 41" class="cls-2" d="M15.619,19.173a5.339,5.339,0,0,1-.143-1.832,5.357,5.357,0,0,1,.143-1.832,2.06,2.06,0,0,1,2.066-1.383,2.058,2.058,0,0,1,2.065,1.383,5.314,5.314,0,0,1,.144,1.832,5.334,5.334,0,0,1-.144,1.832,2.059,2.059,0,0,1-2.065,1.383A2.06,2.06,0,0,1,15.619,19.173Zm3.035-.287a5.91,5.91,0,0,0,.09-1.545,5.947,5.947,0,0,0-.09-1.545,1.062,1.062,0,0,0-1.939,0,5.91,5.91,0,0,0-.09,1.545,5.946,5.946,0,0,0,.09,1.545,1.062,1.062,0,0,0,1.939,0Zm5.389-4.634a.292.292,0,0,1,.287-.179h.862c.108,0,.143.09.09.179L18.188,26.5a.284.284,0,0,1-.269.179h-.862a.114.114,0,0,1-.108-.179Zm-1.706,9.179a5.347,5.347,0,0,1,.143-1.833,2.234,2.234,0,0,1,4.131,0,5.325,5.325,0,0,1,.143,1.833,5.34,5.34,0,0,1-.143,1.832,2.234,2.234,0,0,1-4.131,0A5.34,5.34,0,0,1,22.338,23.431Zm2.21,2.173a.949.949,0,0,0,.97-.629,5.926,5.926,0,0,0,.089-1.544,5.966,5.966,0,0,0-.089-1.545,1.062,1.062,0,0,0-1.94,0,5.933,5.933,0,0,0-.089,1.545,5.959,5.959,0,0,0,.089,1.544A.949.949,0,0,0,24.547,25.6Z" transform="translate(-15.476 -14.072)"/>
    </g>
  </g>
</svg>
