<?xml version="1.0" encoding="utf-8"?>
<!-- Generator: Adobe Illustrator 25.0.0, SVG Export Plug-In . SVG Version: 6.00 Build 0)  -->
<svg version="1.1" id="Layer_1" xmlns="http://www.w3.org/2000/svg" xmlns:xlink="http://www.w3.org/1999/xlink" x="0px" y="0px"
	 viewBox="0 0 500 500" style="enable-background:new 0 0 500 500;" xml:space="preserve">
<style type="text/css">
	.st0{fill:#F8991D;}
	.st1{fill:#FEC40E;}
	.st2{fill:#FFFFFF;}
	.st3{fill:#DC1F26;}
</style>
<path class="st0" d="M334,338.3c-24.3,11.9-53.5,18.8-85,18.8c-30.3,0-58.5-6.4-82.2-17.5c-1.8-0.9-3.7-1.7-5.4-2.7
	c-3.9-2.9-6.3-7.6-6.3-12.8c0-2.2,0.5-4.4,1.3-6.3l1.9-3.3c0,0,0,0,0,0l2.9-5l15.4-26.7c-0.7,1.6-1.1,3.3-1.1,5.1
	c0,6.9,5.6,12.6,12.6,12.6c5.3,0,9.8-3.3,11.7-7.9l0,0l9.2-24.9c1.8-3.5,5.5-5.8,9.7-5.8c6,0,11,4.9,11,11c0,1-0.1,2.8-0.1,2.9
	l-8.4,48.9l0,0c-0.1,0.8-0.2,1.5-0.2,2.3c0,0.7,0.1,1.5,0.2,2.2c9.2,1.3,18.6,2,28.3,2c0.4-1.3,0.6-2.7,0.6-4.2v-28.8l0,0v0.5
	c0.8-6.5,6.4-11.3,12.6-11.3c5.8,0,11,4.1,12.4,9.9l0,0h0c1,6.1,6.3,10.8,12.7,10.8c7.1,0,12.9-5.8,12.9-12.9c0-1.3-0.2-2.6-0.6-3.8
	v0c0-0.1-0.1-0.2-0.1-0.4l-8.3-23c-0.3-0.9-0.5-2-0.4-3.4c0.3-5.5,5.6-10.5,10.7-10.7c0.5,0,2.1-0.1,3.8,0.7c1.7,0.8,2.9,2.1,3.5,3
	l29.8,51.3l2.7,4.7C346.7,322.6,343.2,333.8,334,338.3z"/>
<g>
	<path class="st1" d="M218.5,262c-4.2,0-7.8,2.4-9.7,5.8l-9.2,24.9l0,0c-1.8,4.7-6.4,7.9-11.7,7.9c-6.9,0-12.6-5.6-12.6-12.6
		c0-1.8,0.4-3.6,1.1-5.1l-8.1,14.1c-4.1,7-1.1,16.1,6.3,19.3c14.1,6.1,29.7,10.6,46.2,13c-0.1-0.7-0.2-1.4-0.2-2.2
		c0-0.8,0.1-1.6,0.2-2.3l0,0l8.4-48.9c0-0.1,0.1-2,0.1-2.9C229.5,266.9,224.5,262,218.5,262z"/>
	<path class="st1" d="M331.5,296.5L309,257.8c-0.7-1-1.8-2.3-3.5-3c-1.7-0.8-3.2-0.7-3.8-0.7c-5.1,0.2-10.4,5.2-10.7,10.7
		c-0.1,1.4,0.2,2.5,0.4,3.4l8.3,23c0,0.1,0.1,0.2,0.1,0.4v0c0.4,1.2,0.6,2.5,0.6,3.8c0,7.1-5.8,12.9-12.9,12.9
		c-6.4,0-11.7-4.7-12.7-10.8h0l0,0c-1.4-5.8-6.6-9.9-12.4-9.9c-6.3,0-11.8,4.8-12.6,11.3v-0.5l0,0v28.8c0,1.5-0.2,2.9-0.6,4.2h0.2
		c27.7,0,53.7-5.6,75.8-15.5C332.7,312.5,335.5,303.5,331.5,296.5z"/>
</g>
<path class="st2" d="M298.9,239.8l-29.4-49.7l-4.8-8.2l-3.3-5.6l-2.1-3.6c-4.1-7-13.7-7.4-18.5-1.5c-0.4,0.5-0.8,1-1.1,1.5l-2,3.6
	l-3.3,5.7L224,200.3l-20.6,35.7l-2.9,4.8L176.9,282c0,0,0,0,0,0.1l0,0l0,0c-0.1,0.3-0.3,0.5-0.4,0.8c-0.7,1.6-1.1,3.3-1.1,5.1
	c0,6.9,5.6,12.6,12.6,12.6c5.3,0,9.8-3.3,11.7-7.9l0,0l9.2-24.9c1.8-3.5,5.5-5.8,9.7-5.8c6,0,11,4.9,11,11c0,1-0.1,2.8-0.1,2.9
	l-8.4,48.9l0,0c-0.1,0.8-0.2,1.5-0.2,2.3c0,0.7,0.1,1.5,0.2,2.2c1,7,7.1,12.4,14.4,12.4c6.6,0,12.1-4.4,13.9-10.3
	c0.4-1.3,0.6-2.7,0.6-4.2v-28.8l0,0v0.5c0.8-6.5,6.4-11.3,12.6-11.3c5.8,0,11,4.1,12.4,9.9l0,0h0c1,6.1,6.3,10.8,12.7,10.8
	c7.1,0,12.9-5.8,12.9-12.9c0-1.3-0.2-2.6-0.6-3.8v0c0-0.1-0.1-0.2-0.1-0.4l-8.3-23c-0.3-0.9-0.5-2-0.4-3.4
	c0.3-5.5,5.6-10.5,10.7-10.7c0.5,0,2.1-0.1,3.8,0.7c1.7,0.8,2.9,2.1,3.5,3c0.5,0.7,0.7,1.2,0.8,1.2
	C309.7,258.8,307.8,255.3,298.9,239.8z"/>
<circle class="st3" cx="263.3" cy="234.5" r="20.6"/>
<path class="st3" d="M234.2,218.1c0,11.4-9.2,20.6-20.6,20.6c-3.7,0-7.2-1-10.1-2.7l20.6-35.7C230.1,203.9,234.2,210.5,234.2,218.1z
	"/>
<path class="st3" d="M269.6,190.1c-2.5,1-5.2,1.6-8,1.6c-11.3,0-20.5-9.2-20.6-20.5c4.8-5.9,14.4-5.5,18.5,1.5L269.6,190.1z"/>
</svg>
