<svg xmlns="http://www.w3.org/2000/svg" width="42" height="42" viewBox="0 0 42 42">
  <defs>
    <style>
      .cls-1 {
        fill: #f0efef;
      }

      .cls-2 {
        fill: #2d2d2d;
      }
    </style>
  </defs>
  <g id="Backward_Button_2" data-name="Backward Button 2" transform="translate(-11 -14)">
    <circle id="Ellipse_12" data-name="Ellipse 12" class="cls-1" cx="21" cy="21" r="21" transform="translate(11 14)"/>
    <path id="iconfinder_227601_right_arrow_icon" class="cls-2" d="M30.934,26.665H12.121L18.6,33.14a1.207,1.207,0,1,1-1.707,1.707L8.354,26.312h0a1.218,1.218,0,0,1-.15-.184c-.02-.03-.034-.063-.052-.1a1.208,1.208,0,0,1-.059-.113,1.073,1.073,0,0,1-.039-.125c-.01-.033-.023-.065-.03-.1A1.206,1.206,0,0,1,8,25.458H8v0a1.217,1.217,0,0,1,.024-.234c.007-.036.021-.07.031-.105A1.121,1.121,0,0,1,8.092,25a1.25,1.25,0,0,1,.063-.119c.016-.03.029-.06.048-.088a1.189,1.189,0,0,1,.151-.185l8.534-8.534A1.207,1.207,0,1,1,18.6,17.777l-6.475,6.474H30.934a1.207,1.207,0,1,1,0,2.414Z" transform="translate(11.929 9.542)"/>
  </g>
</svg>
