<svg xmlns="http://www.w3.org/2000/svg" width="59" height="59" viewBox="0 0 59 59">
  <defs>
    <style>
      .cls-1 {
        fill: #f36e21;
      }

      .cls-2 {
        fill: #fff;
      }
    </style>
  </defs>
  <g id="Like_Button" data-name="Like Button" transform="translate(-323 -305)">
    <rect id="Rectangle_32" data-name="Rectangle 32" class="cls-1" width="59" height="59" rx="10" transform="translate(323 305)"/>
    <path id="heart" class="cls-2" d="M25.109,1.248a9.833,9.833,0,0,1,7.228,3.186,10.978,10.978,0,0,1,2.938,7.548,10.979,10.979,0,0,1-2.939,7.549L18.814,33.964a1.75,1.75,0,0,1-2.554,0L2.737,19.53A10.981,10.981,0,0,1-.2,11.982,10.981,10.981,0,0,1,2.737,4.434a9.795,9.795,0,0,1,14.456,0l.344.368.344-.368A9.833,9.833,0,0,1,25.109,1.248Zm-7.572,28.96L29.783,17.137a7.649,7.649,0,0,0,0-10.31,6.294,6.294,0,0,0-9.347,0L18.814,8.557a1.75,1.75,0,0,1-2.554,0L14.638,6.826a6.3,6.3,0,0,0-9.347,0,7.651,7.651,0,0,0,0,10.31Z" transform="translate(334.963 318.617)"/>
  </g>
</svg>
