<svg height="512pt" viewBox="0 0 512 512" width="512pt" xmlns="http://www.w3.org/2000/svg"><path d="m502 392h-20v-36c0-12.199219-7.324219-22.714844-17.800781-27.398438 10.984375-10.878906 17.800781-25.957031 17.800781-42.601562 0-19.078125-8.960938-36.09375-22.886719-47.089844 12.460938-4.976562 23.898438-12.480468 33.664063-22.265625 3.460937-3.464843 3.898437-8.929687 1.039062-12.90625l-27.878906-38.730469c-1.730469-2.398437-4.429688-3.910156-7.378906-4.128906-2.945313-.222656-5.84375.878906-7.90625 2.996094-5.210938 5.359375-11.632813 9.066406-18.652344 10.867188v-164.742188c0-5.523438-4.476562-10-10-10s-10 4.476562-10 10v164.738281c-7.015625-1.804687-13.4375-5.511719-18.660156-10.867187-2.0625-2.117188-4.953125-3.214844-7.902344-2.992188-2.949219.21875-5.648438 1.730469-7.375 4.128906l-27.878906 38.730469c-2.859375 3.976563-2.421875 9.441407 1.039062 12.90625 9.765625 9.785157 21.203125 17.289063 33.664063 22.265625-13.925781 10.996094-22.886719 28.011719-22.886719 47.089844 0 16.644531 6.816406 31.722656 17.800781 42.601562-10.476562 4.683594-17.800781 15.199219-17.800781 27.398438v36h-46v-36c0-12.199219-7.324219-22.714844-17.800781-27.398438 10.984375-10.878906 17.800781-25.957031 17.800781-42.601562 0-19.078125-8.960938-36.09375-22.886719-47.089844 12.460938-4.976562 23.898438-12.480468 33.664063-22.265625 3.460937-3.464843 3.898437-8.929687 1.039062-12.90625l-27.878906-38.730469c-1.730469-2.398437-4.429688-3.910156-7.378906-4.128906-2.949219-.222656-5.84375.878906-7.90625 2.996094-5.210938 5.359375-11.632813 9.066406-18.652344 10.867188v-164.742188c0-5.523438-4.476562-10-10-10s-10 4.476562-10 10v164.738281c-7.015625-1.804687-13.4375-5.511719-18.660156-10.867187-2.0625-2.117188-4.957032-3.214844-7.902344-2.992188-2.949219.21875-5.648438 1.730469-7.375 4.128906l-27.878906 38.730469c-2.859375 3.976563-2.421875 9.441407 1.039062 12.90625 9.765625 9.785157 21.203125 17.289063 33.664063 22.265625-13.925781 10.996094-22.886719 28.011719-22.886719 47.089844 0 16.644531 6.816406 31.722656 17.800781 42.601562-10.476562 4.683594-17.800781 15.199219-17.800781 27.398438v36h-46v-36c0-12.199219-7.324219-22.714844-17.800781-27.398438 10.984375-10.878906 17.800781-25.957031 17.800781-42.601562 0-19.078125-8.960938-36.09375-22.886719-47.089844 12.460938-4.976562 23.898438-12.480468 33.664063-22.265625 3.460937-3.464843 3.898437-8.929687 1.039062-12.90625l-27.878906-38.730469c-1.730469-2.398437-4.429688-3.910156-7.378906-4.128906-2.953125-.222656-5.84375.878906-7.90625 2.996094-5.210938 5.359375-11.632813 9.066406-18.652344 10.867188v-164.742188c0-5.523438-4.476562-10-10-10s-10 4.476562-10 10v164.738281c-7.015625-1.804687-13.4375-5.511719-18.660156-10.867187-2.0625-2.117188-4.960938-3.214844-7.902344-2.992188-2.949219.21875-5.648438 1.730469-7.375 4.128906l-27.878906 38.730469c-2.859375 3.976563-2.421875 9.441407 1.039062 12.90625 9.765625 9.785157 21.203125 17.289063 33.664063 22.265625-13.925781 10.996094-22.886719 28.011719-22.886719 47.089844 0 16.644531 6.816406 31.722656 17.800781 42.601562-10.476562 4.683594-17.800781 15.199219-17.800781 27.398438v36h-20c-5.523438 0-10 4.476562-10 10 0 36.78125 28.1875 66.546875 63.671875 69.707031l11.851563 23.703125c5.121093 10.234375 15.402343 16.589844 26.835937 16.589844h307.28125c11.433594 0 21.71875-6.355469 26.835937-16.589844l11.851563-23.710937c35.644531-3.210938 63.671875-33.234375 63.671875-69.699219 0-5.523438-4.476562-10-10-10zm-130.363281-183.828125 16.367187-22.738281c9.929688 6.875 21.667969 10.566406 33.996094 10.566406 12.339844 0 24.078125-3.691406 34-10.5625l16.363281 22.734375c-14.207031 11.550781-31.800781 17.828125-50.363281 17.828125s-36.15625-6.277344-50.363281-17.828125zm50.363281 37.828125c22.054688 0 40 17.945312 40 40s-17.945312 40-40 40-40-17.945312-40-40 17.945312-40 40-40zm-40 110c0-5.515625 4.484375-10 10-10h60c5.515625 0 10 4.484375 10 10v36h-80zm-176.363281-147.828125 16.367187-22.738281c9.929688 6.875 21.667969 10.566406 33.996094 10.566406 12.339844 0 24.078125-3.691406 34-10.5625l16.363281 22.734375c-14.207031 11.550781-31.800781 17.828125-50.363281 17.828125s-36.15625-6.277344-50.363281-17.828125zm50.363281 37.828125c22.054688 0 40 17.945312 40 40s-17.945312 40-40 40-40-17.945312-40-40 17.945312-40 40-40zm-40 110c0-5.515625 4.484375-10 10-10h60c5.515625 0 10 4.484375 10 10v36h-80zm-176.363281-147.828125 16.367187-22.738281c9.929688 6.875 21.667969 10.566406 33.996094 10.566406 12.339844 0 24.078125-3.691406 34-10.5625l16.363281 22.734375c-14.207031 11.550781-31.800781 17.828125-50.363281 17.828125s-36.15625-6.277344-50.363281-17.828125zm50.363281 37.828125c22.054688 0 40 17.945312 40 40s-17.945312 40-40 40-40-17.945312-40-40 17.945312-40 40-40zm-40 110c0-5.515625 4.484375-10 10-10h60c5.515625 0 10 4.484375 10 10v36h-80zm392 96h-60c-5.523438 0-10 4.476562-10 10s4.476562 10 10 10h43.820312l-7.234374 14.46875c-1.707032 3.410156-5.136719 5.53125-8.945313 5.53125h-307.28125c-3.8125 0-7.238281-2.121094-8.945313-5.53125l-7.234374-14.46875h215.820312c5.523438 0 10-4.476562 10-10s-4.476562-10-10-10h-232c-24.527344 0-44.457031-17.496094-49.007812-40.011719h470.003906c-4.644532 22.796875-24.851563 40.011719-48.996094 40.011719zm0 0"/><path d="m352 462c0 5.523438-4.476562 10-10 10s-10-4.476562-10-10 4.476562-10 10-10 10 4.476562 10 10zm0 0"/></svg>