<svg height="511pt" viewBox="-16 1 511 511.99987" width="511pt" xmlns="http://www.w3.org/2000/svg"><path d="m474.167969 129.082031c14.785156-29.589843 2.746093-65.703125-26.835938-80.503906-129.515625-64.769531-284.160156-64.769531-413.679687.003906-29.582032 14.796875-41.617188 50.910157-26.824219 80.515625 7.621094 15.207032 20.867187 25.773438 35.953125 30.445313l32.710938 61.617187v154.839844c0 24.8125 20.1875 45 45 45 21.234374 0 39.082031-14.785156 43.785156-34.601562l62.992187 117.679687c2.609375 4.878906 7.691407 7.921875 13.222657 7.921875s10.613281-3.042969 13.222656-7.921875l184.414062-344.441406c15.449219-4.714844 28.519532-15.542969 36.039063-30.554688zm-427.09375-53.671875c121.113281-60.570312 265.726562-60.570312 386.835937 0 14.796875 7.402344 20.816406 25.464844 13.429688 40.25-7.457032 14.886719-25.40625 20.839844-40.261719 13.429688-10.25-5.128906-20.835937-9.808594-31.582031-13.976563v-10.117187c0-8.285156-6.71875-15-15-15-8.285156 0-15 6.714844-15 15v30c0 8.269531-6.730469 15-15 15-8.273438 0-15-6.730469-15-15v-60c0-8.285156-6.71875-15-15-15-8.285156 0-15 6.714844-15 15v17.671875c-28.492188-3.441407-57.230469-3.613281-85.785156-.492188-.011719 0-.027344.003907-.039063.003907-45.410156 4.972656-87.65625 17.847656-125.765625 36.910156-14.777344 7.398437-32.835938 1.371094-40.25-13.417969-7.394531-14.796875-1.375-32.859375 13.417969-40.261719zm148.417969 59.585938c0 16.542968-13.457032 30-30 30-16.082032 0-29.246094-12.722656-29.964844-28.632813 18.757812-5.980469 38.050781-10.339843 57.601562-13.046875 1.546875 3.652344 2.363282 7.59375 2.363282 11.679688zm45.003906 330.222656-76.777344-143.441406c-3.246094-6.066406-10.203125-9.144532-16.875-7.472656-6.671875 1.675781-11.351562 7.671874-11.351562 14.550781v47.144531c0 8.269531-6.730469 15-15 15-8.273438 0-15-6.730469-15-15v-158.574219c0-2.453125-.601563-4.867187-1.75-7.03125l-26.78125-50.445312c3.515624-1.007813 6.984374-2.335938 10.367187-4.027344 6.359375-3.179687 12.824219-6.148437 19.375-8.910156 5.578125 27.347656 29.816406 47.988281 58.789063 47.988281 33.085937 0 60-26.917969 60-60 0-4.929688-.621094-9.824219-1.808594-14.566406 20.589844-1.019532 41.300781-.207032 61.808594 2.46875v12.097656c0 24.8125 20.1875 45 45 45 20.71875 0 38.199218-14.078125 43.410156-33.164062 6.699218 2.824218 13.304687 5.859374 19.769531 9.09375 3.296875 1.644531 6.746094 2.964843 10.28125 3.980468l-82.109375 153.367188c-10.285156-7.828125-22.996094-12.277344-36.347656-12.277344-33.085938 0-60.003906 26.917969-60.003906 60 0 26.234375 16.933593 48.578125 40.441406 56.707031zm39.964844-74.648438c-14.152344-2.402343-24.96875-14.746093-24.96875-29.570312 0-16.542969 13.460937-30 30-30 8.359374 0 16.214843 3.492188 21.816406 9.421875zm0 0"/><path d="m255.492188 240.996094c0-8.28125-6.714844-15-15-15-8.285157 0-15 6.71875-15 15 0 8.273437-6.726563 15-15 15-8.269532 0-15-6.726563-15-15 0-8.28125-6.714844-15-15-15-8.285157 0-15 6.71875-15 15 0 24.8125 20.1875 45 45 45s45-20.1875 45-45zm0 0"/><path d="m315.492188 225.996094c0 8.285156-6.714844 15-15 15-8.28125 0-15-6.714844-15-15s6.71875-15 15-15c8.285156 0 15 6.714844 15 15zm0 0"/></svg>