<?xml version="1.0" encoding="utf-8"?>
<!-- Generator: Adobe Illustrator 25.0.0, SVG Export Plug-In . SVG Version: 6.00 Build 0)  -->
<svg version="1.1" id="Layer_1" xmlns="http://www.w3.org/2000/svg" xmlns:xlink="http://www.w3.org/1999/xlink" x="0px" y="0px"
	 viewBox="0 0 500 500" style="enable-background:new 0 0 500 500;" xml:space="preserve">
<style type="text/css">
	.st0{fill:#F8991D;}
	.st1{fill:#FEC40E;}
	.st2{fill:#FFFFFF;}
	.st3{fill:#DC1F26;}
</style>
<g>
	<path class="st0" d="M467.9,443.2c-62.5,30.1-137.9,47.7-219.1,47.7c-78.1,0-150.8-16.3-211.8-44.3c-4.7-2.2-9.4-4.4-14-6.7
		c-9.9-7.4-16.4-19.2-16.4-32.4c0-5.7,1.2-11.1,3.3-16l4.8-8.3c0,0,0-0.1,0.1-0.1l7.5-12.8L62,302.6c-1.8,4-2.8,8.3-2.8,13
		c0,17.6,14.5,31.9,32.4,31.9c13.7,0,25.4-8.3,30.1-20.2l0,0l23.7-63c4.8-8.8,14.1-14.8,24.9-14.8c15.6,0,28.2,12.5,28.2,27.8
		c0,2.5-0.3,7.2-0.3,7.4l-21.7,124l0.1,0c-0.3,1.9-0.5,3.9-0.5,5.9c0,1.9,0.1,3.7,0.4,5.5c23.6,3.4,48,5.1,72.9,5.2
		c1-3.4,1.6-6.9,1.6-10.6v-72.9l0-0.1v1.2c2.2-16.5,16.4-28.7,32.5-28.7c14.9,0,28.3,10.4,31.9,25.2l0,0h0
		c2.6,15.5,16.2,27.4,32.8,27.4c18.3,0,33.2-14.6,33.2-32.7c0-3.4-0.5-6.6-1.5-9.7v0c-0.1-0.3-0.2-0.6-0.3-0.9l-21.3-58.3
		c-0.7-2.2-1.3-5.1-1.1-8.6c0.8-13.8,14.4-26.6,27.5-27.1c1.4-0.1,5.4-0.2,9.7,1.7c4.4,2,7.4,5.3,9.1,7.7l76.9,130l7,11.8
		C500.5,403.2,491.5,431.8,467.9,443.2z"/>
	<g>
		<path class="st1" d="M170.3,249.5c-10.8,0-20.2,6-24.9,14.8l-23.7,63l0,0c-4.7,11.8-16.4,20.2-30.1,20.2
			c-17.9,0-32.4-14.3-32.4-31.9c0-4.7,1-9.1,2.8-13l-20.9,35.7c-10.5,17.9-3,40.9,16.2,49.1c36.3,15.5,76.5,26.8,119.1,32.8
			c-0.3-1.8-0.4-3.6-0.4-5.5c0-2,0.2-4,0.5-5.9l-0.1,0l21.7-124c0-0.2,0.3-4.9,0.3-7.4C198.5,262,185.9,249.5,170.3,249.5z"/>
		<path class="st1" d="M461.4,337l-58-98.1c-1.7-2.4-4.7-5.8-9.1-7.7c-4.3-1.9-8.3-1.8-9.7-1.7c-13.1,0.5-26.7,13.2-27.5,27.1
			c-0.2,3.4,0.4,6.4,1.1,8.6l21.3,58.3c0.1,0.3,0.2,0.6,0.3,0.9v0c1,3,1.5,6.3,1.5,9.7c0,18.1-14.9,32.7-33.2,32.7
			c-16.5,0-30.1-11.8-32.8-27.4h0l0,0c-3.6-14.8-17-25.2-31.9-25.2c-16.2,0-30.4,12.3-32.5,28.7v-1.2l0,0.1v72.9
			c0,3.7-0.5,7.3-1.6,10.6h0.6c71.4,0,138.3-14.3,195.4-39.2C464.5,377.8,471.9,354.8,461.4,337z"/>
	</g>
	<path class="st2" d="M377.6,193.4l-75.7-126l-12.3-20.8l-8.4-14.2l-5.3-9c-10.4-17.6-35.2-18.9-47.7-3.8c-1,1.2-1.9,2.5-2.8,3.9
		l-5.3,9l-8.5,14.5l-27.2,46.4l-53,90.6l-7.4,12l-61,104.4c0,0.1-0.1,0.1-0.1,0.2l-0.1,0.1l0,0c-0.4,0.7-0.7,1.4-1,2.1
		c-1.8,4-2.8,8.3-2.8,13c0,17.6,14.5,31.9,32.4,31.9c13.7,0,25.4-8.3,30.1-20.2l0,0l23.7-63c4.8-8.8,14.1-14.8,24.9-14.8
		c15.6,0,28.2,12.5,28.2,27.8c0,2.5-0.3,7.2-0.3,7.4l-21.7,124l0.1,0c-0.3,1.9-0.5,3.9-0.5,5.9c0,1.9,0.1,3.7,0.4,5.5
		c2.7,17.8,18.2,31.4,37,31.4c17,0,31.3-11.1,35.9-26.2c1-3.4,1.6-6.9,1.6-10.6v-72.9l0-0.1v1.2c2.2-16.5,16.4-28.7,32.5-28.7
		c14.9,0,28.3,10.4,31.9,25.2l0,0h0c2.6,15.5,16.2,27.4,32.8,27.4c18.3,0,33.2-14.6,33.2-32.7c0-3.4-0.5-6.6-1.5-9.7v0
		c-0.1-0.3-0.2-0.6-0.3-0.9l-21.3-58.3c-0.7-2.2-1.3-5.1-1.1-8.6c0.8-13.8,14.4-26.6,27.5-27.1c1.4-0.1,5.4-0.2,9.7,1.7
		c4.4,2,7.4,5.3,9.1,7.7c1.3,1.8,1.9,3.1,1.9,3.1C405.3,241.6,400.4,232.7,377.6,193.4z"/>
	<ellipse class="st3" cx="285.7" cy="179.8" rx="53.1" ry="52.3"/>
	<path class="st3" d="M210.7,138.3c0,28.9-23.8,52.2-53.1,52.2c-9.5,0-18.4-2.5-26.1-6.7l53-90.6
		C200.2,102.3,210.7,119.1,210.7,138.3z"/>
	<path class="st3" d="M301.9,67.4c-6.3,2.6-13.3,4.1-20.7,4.1c-29.2,0-53-23.3-53.1-52c12.5-15.1,37.2-13.8,47.7,3.8L301.9,67.4z"/>
</g>
</svg>
