<svg xmlns="http://www.w3.org/2000/svg" width="36.481" height="42.628" viewBox="0 0 36.481 42.628">
  <defs>
    <style>
      .cls-1 {
        fill: #f36e21;
      }
    </style>
  </defs>
  <g id="Drink_Icon" data-name="Drink Icon" transform="translate(-6.33 -2.003)">
    <path id="Path_34" data-name="Path 34" class="cls-1" d="M42.48,8.509,32.419,2.115a.706.706,0,0,0-1.037.334L28.966,8.4H16.774a5.246,5.246,0,1,0-5.9,5.9v5.926a10.639,10.639,0,0,0,8.512,10.416v9.933l-2.75.632a1.583,1.583,0,0,0,.092,3.1,29.331,29.331,0,0,0,3.325.3c.469.014.952.021,1.442.021s.973-.007,1.435-.028a27.5,27.5,0,0,0,3.332-.3,1.541,1.541,0,0,0,1.322-1.5A1.57,1.57,0,0,0,26.352,41.2l-2.75-.632V30.648a10.645,10.645,0,0,0,8.512-10.416V9.106a.713.713,0,0,0-.71-.71h-.909L32.37,3.77l9.343,5.94a.706.706,0,0,0,.98-.22A.7.7,0,0,0,42.48,8.509ZM26.394,14.754a5.261,5.261,0,0,0-1.215.519,1.735,1.735,0,0,1-1.8-.007,5.654,5.654,0,0,0-5.67.007,1.735,1.735,0,0,1-1.8.007,5.635,5.635,0,0,0-3.609-.718v-.909h0V9.816H28.4ZM7.751,9.106a3.827,3.827,0,0,1,7.588-.71H11.581a.713.713,0,0,0-.71.71v3.759A3.828,3.828,0,0,1,7.751,9.106ZM22.2,41.2a1.006,1.006,0,0,0,.028.142.614.614,0,0,0,.05.121.644.644,0,0,0,.078.114.614.614,0,0,0,.092.1.926.926,0,0,0,.107.071.77.77,0,0,0,.135.057c.021.007.036.021.057.028l3.3.76c.036.007.128.028.121.171-.007.121-.078.135-.121.142a26.452,26.452,0,0,1-3.176.277c-.888.043-1.847.043-2.757,0a28.014,28.014,0,0,1-3.169-.277.125.125,0,0,1-.121-.142.157.157,0,0,1,.121-.171l3.3-.76c.021-.007.036-.021.057-.028a.77.77,0,0,0,.135-.057.557.557,0,0,0,.107-.071.614.614,0,0,0,.092-.1.644.644,0,0,0,.078-.114.867.867,0,0,0,.05-.121,1.006,1.006,0,0,0,.028-.142c0-.021.014-.036.014-.057V30.826c.234.014.462.036.7.036s.462-.021.7-.036V41.142C22.2,41.163,22.2,41.185,22.2,41.2Zm-.71-11.759a9.215,9.215,0,0,1-9.208-9.208V15.991a4.185,4.185,0,0,1,2.885.5,3.238,3.238,0,0,0,1.627.455,3.139,3.139,0,0,0,1.627-.462,4.241,4.241,0,0,1,4.22-.007,3.132,3.132,0,0,0,2.991.149L21.9,25.859a.709.709,0,0,0,.391.924.7.7,0,0,0,.27.05.714.714,0,0,0,.661-.448l4.22-10.423a4.181,4.181,0,0,1,2.7.526,3.429,3.429,0,0,0,.568.263v3.474A9.227,9.227,0,0,1,21.492,29.44ZM30.707,9.816v5.378a5.574,5.574,0,0,0-2.671-.7l1.89-4.675Z" transform="translate(0 0)"/>
  </g>
</svg>
